<?xml version="1.0" encoding="utf-8"?>
<!-- Generator: Adobe Illustrator 25.2.3, SVG Export Plug-In . SVG Version: 6.00 Build 0)  -->
<svg version="1.1" id="Layer_1" xmlns="http://www.w3.org/2000/svg" xmlns:xlink="http://www.w3.org/1999/xlink" x="0px" y="0px"
	 viewBox="0 0 324.6 47.5" style="enable-background:new 0 0 324.6 47.5;" xml:space="preserve">
<style type="text/css">
	.st0{fill-rule:evenodd;clip-rule:evenodd;fill:#130048;}
</style>
<g id="Layer_2_1_">
	<g id="Layer_1-2">
		<path class="st0" d="M48.1,37L35.5,20.5V3.4h10.4c1.2,0,2.2,1,2.2,2.2c0,0,0,0,0,0V37z M46,44h-9.5c-2.1,0-4.1-1-5.4-2.7L4.1,6.1
			C3.5,5.3,3.7,4.3,4.4,3.8c0.3-0.2,0.6-0.3,1-0.3h9.4c2.1,0,4.1,1,5.4,2.7l27.1,35.3c0.5,0.7,0.4,1.8-0.4,2.3
			C46.7,43.9,46.3,44,46,44z M15.9,44H5.5c-1.2,0-2.2-1-2.2-2.2V10.3l12.6,16.6V44z M45.8,0H33.9c-0.9,0-1.7,0.8-1.7,1.7v14.6
			L22.9,4c-1.9-2.5-4.9-4-8.1-4H5.5C2.5,0,0,2.5,0,5.5c0,0,0,0,0,0v36.4c0,3.1,2.5,5.5,5.5,5.5c0,0,0,0,0,0h11.9
			c0.9,0,1.7-0.8,1.7-1.7V31l9.3,12.4c1.9,2.6,4.9,4.1,8.1,4.1h9.2c3.1,0,5.5-2.5,5.5-5.5c0,0,0,0,0,0V5.5C51.3,2.5,48.9,0,45.8,0
			C45.8,0,45.8,0,45.8,0z"/>
		<polygon class="st0" points="114.8,43.4 107.2,43.4 88.4,21.8 88.4,43.4 78.6,43.4 78.6,4.1 86.1,4.1 105,26.2 105,4.1 114.8,4.1 
					"/>
		<path class="st0" d="M125.2,26.6h11.5c-0.3-2.8-2.7-4.9-5.6-4.7C128.3,21.8,125.7,23.8,125.2,26.6 M145.3,32l-0.1,0.2h-19.9
			c0.7,2.8,3.4,4.7,6.3,4.5c1.7,0.1,3.3-0.6,4.3-2h9.2c-1.3,5.8-6.7,9.4-13.6,9.4c-9.2,0-15.3-6.1-15.3-14.7s6-14.6,14.9-14.6
			c8.1,0,14.3,5.6,14.3,14.1C145.5,29.9,145.4,30.9,145.3,32"/>
		<path class="st0" d="M168.1,33.7V25c-1.4-1.7-3.6-2.7-5.8-2.7c-3.7,0.1-6.6,3.1-6.6,6.8c0,0.1,0,0.1,0,0.2
			c-0.2,3.7,2.7,6.8,6.3,6.9c0.1,0,0.2,0,0.3,0C164.5,36.4,166.7,35.4,168.1,33.7z M177.5,43.4h-9.4v-1.6c-2.3,1.5-5,2.2-7.7,2.2
			c-7.6,0-13.9-6.3-13.9-14.6s6.4-14.6,13.9-14.6c2.7,0,5.4,0.7,7.7,2.1v-1.5h9.4V43.4z"/>
		<path class="st0" d="M198.7,23.8c-4.6,0.2-7.5,1.4-9.7,3.6v16h-9.4v-28h9.4v3c2.7-2.3,6.1-3.6,9.7-3.5V23.8z"/>
		<path class="st0" d="M229.3,12.7V4.1H200v39.3h9.8V29.5h14.7v-0.2c0-2.9,0.7-5.8,2.1-8.4h-16.8v-8.3H229.3z"/>
		<path class="st0" d="M276.5,23.8c-4.6,0.2-7.5,1.4-9.7,3.6v16h-9.4v-28h9.4v3c2.7-2.3,6.1-3.6,9.7-3.5V23.8z"/>
		<path class="st0" d="M324.6,27.4v16h-9.4V28.9c0-4-1.9-5.9-5-5.9c-1.7,0.1-3.3,0.9-4.3,2.3c0.1,0.7,0.1,1.4,0.1,2.1v16h-9.4V28.9
			c0-4-2-5.9-5-5.9c-1.5,0-2.8,0.7-4.2,2.5v17.9H278v-28h9.4V17c1.9-1.7,4.4-2.6,7-2.6c3.3-0.1,6.5,1.3,8.6,3.8
			c2.7-2.6,6.3-3.9,10-3.8C319.7,14.5,324.7,19.4,324.6,27.4"/>
		<path class="st0" d="M247.5,29.4c0.2-3.5-2.5-6.5-6-6.7c-3.5-0.2-6.5,2.5-6.7,6c0,0.2,0,0.5,0,0.7c0,3.8,2.6,6.8,6.4,6.8
			S247.5,33.2,247.5,29.4 M256.3,29.3c0,8.6-6.4,14.9-15.2,14.9s-15.2-6.4-15.2-14.9s6.4-14.6,15.2-14.6S256.3,20.9,256.3,29.3"/>
	</g>
</g>
</svg>
